HIERARCHY
ROOT Hips
{
	OFFSET 0.00 0.00 0.00
	CHANNELS 6 Xposition Yposition Zposition Xrotation Yrotation Zrotation
	JOINT RightUpLeg
	{
		OFFSET -4.47808 0.00000 0.00000
		CHANNELS 3 Xrotation Yrotation Zrotation
		JOINT RightLeg
		{
			OFFSET 0.00000 -16.40577 0.00000
			CHANNELS 3 Xrotation Yrotation Zrotation
			JOINT RightFoot
			{
				OFFSET 0.00000 -14.64414 0.00000
				CHANNELS 3 Xrotation Yrotation Zrotation
				JOINT RightToeBase
				{
					OFFSET 0.00000 -1.50274 5.60831
					CHANNELS 3 Xrotation Yrotation Zrotation
					End Site
					{
						OFFSET 0.00000 0.00000 2.95275
					}
				}
			}
		}
	}
	JOINT LeftUpLeg
	{
		OFFSET 4.47808 0.00000 0.00000
		CHANNELS 3 Xrotation Yrotation Zrotation
		JOINT LeftLeg
		{
			OFFSET 0.00000 -16.40577 0.00000
			CHANNELS 3 Xrotation Yrotation Zrotation
			JOINT LeftFoot
			{
				OFFSET 0.00000 -14.64414 0.00000
				CHANNELS 3 Xrotation Yrotation Zrotation
				JOINT LeftToeBase
				{
					OFFSET 0.00000 -1.50274 5.60831
					CHANNELS 3 Xrotation Yrotation Zrotation
					End Site
					{
						OFFSET 0.00000 0.00000 2.95275
					}
				}
			}
		}
	}
	JOINT Spine
	{
		OFFSET 0.00000 6.06821 0.00000
		CHANNELS 3 Xrotation Yrotation Zrotation
		JOINT RightShoulder
		{
			OFFSET 0.00000 10.01392 0.00000
			CHANNELS 3 Xrotation Yrotation Zrotation
			JOINT RightArm
			{
				OFFSET -7.19022 0.00000 0.00000
				CHANNELS 3 Xrotation Yrotation Zrotation
				JOINT RightForeArm
				{
					OFFSET -10.17747 0.00000 0.00000
					CHANNELS 3 Yrotation Zrotation Xrotation
					JOINT RightHand
					{
						OFFSET -8.39211 0.00000 0.00000
						CHANNELS 3 Xrotation Yrotation Zrotation
						End Site
						{
							OFFSET -3.93700 0.00000 0.00000
						}
						JOINT RightHandThumb1
						{
							OFFSET 0.00000 0.00000 0.00000
							CHANNELS 3 Xrotation Zrotation Yrotation
							End Site
							{
								OFFSET 0.00000 0.00000 3.93700
							}
						}
					}
				}
			}
		}
		JOINT LeftShoulder
		{
			OFFSET 0.00000 10.01392 0.00000
			CHANNELS 3 Xrotation Yrotation Zrotation
			JOINT LeftArm
			{
				OFFSET 7.19022 0.00000 0.00000
				CHANNELS 3 Xrotation Yrotation Zrotation
				JOINT LeftForeArm
				{
					OFFSET 10.17747 0.00000 0.00000
					CHANNELS 3 Yrotation Zrotation Xrotation
					JOINT LeftHand
					{
						OFFSET 8.39211 0.00000 0.00000
						CHANNELS 3 Xrotation Yrotation Zrotation
						End Site
						{
							OFFSET 3.93700 0.00000 0.00000
						}
						JOINT LeftHandThumb1
						{
							OFFSET 0.00000 0.00000 0.00000
							CHANNELS 3 Xrotation Zrotation Yrotation
							End Site
							{
								OFFSET 0.00000 0.00000 3.93700
							}
						}
					}
				}
			}
		}
		JOINT Head
		{
			OFFSET 0.00000 15.77748 0.00000
			CHANNELS 3 Xrotation Yrotation Zrotation
			End Site
			{
				OFFSET 0.00000 4.52755 0.00000
			}
		}
	}
}
MOTION
Frames: 7
Frame Time: 0.008333
 -13.7368 14.7177 -9.2896 34.9819 -12.2213 37.6326 -126.4479 19.8076 -15.8456 137.2324 0.0000 -0.0000 -45.7366 -10.1256 -5.3397 -2.2338 0.0000 0.0000 -29.1799 26.2260 36.2189 4.4045 0.0000 -0.0000 7.6498 23.1482 -38.5015 20.4407 0.0000 -0.0000 8.2928 13.8247 25.8160 -0.6689 -2.1353 -11.5956 -27.3092 -35.1359 64.8704 35.9356 0.0000 26.6021 29.0789 0.2460 -89.5576 32.8623 0.0000 -24.3270 -33.8743 1.8165 60.5975 -72.4659 -38.7452 -20.6754 -12.7026 0.0000 21.0998 -0.0326 0.0977 18.4668 33.1476 -0.0000 26.2537 -26.7686 30.3167 53.6707
 -13.7371 14.7134 -9.2825 34.9864 -12.2157 37.6777 -126.4751 19.8549 -15.8320 137.2620 -0.0000 -0.0000 -45.7400 -10.1474 -5.2693 -2.3044 0.0000 -0.0000 -29.1290 26.2496 36.1641 4.3759 0.0000 -0.0000 7.6800 23.1583 -38.6194 20.4036 -0.0000 -0.0000 8.3210 13.8723 25.8180 -0.6083 -2.1906 -11.6330 -27.2561 -35.3073 64.9806 36.2616 0.0000 26.7418 28.9807 0.3490 -89.3698 32.8623 0.0000 -24.3270 -33.8417 1.8453 60.5611 -72.4669 -38.7645 -20.6641 -12.6631 0.0000 21.3068 -0.0213 0.0634 18.5443 33.1476 -0.0000 26.2537 -26.7440 30.3424 53.6542
 -13.7379 14.7090 -9.2766 35.0182 -12.1984 37.7310 -126.5324 19.9079 -15.7974 137.2869 -0.0000 -0.0000 -45.7550 -10.1487 -5.2730 -2.2687 -0.0000 0.0000 -29.0868 26.2272 36.1048 4.3822 0.0000 0.0000 7.6850 23.2100 -38.6820 20.4316 0.0000 -0.0000 8.3674 13.8041 25.8152 -0.6232 -2.1002 -11.6951 -27.1220 -35.5717 65.1275 36.6089 0.0000 26.9552 28.9779 0.4962 -89.1040 32.8623 0.0000 -24.3270 -33.7866 1.9437 60.5750 -72.3830 -38.7944 -20.5669 -12.6452 0.0000 21.3027 -0.0421 0.1255 18.5441 33.1476 -0.0000 26.2537 -26.7108 30.5069 53.6861
 -13.7387 14.7060 -9.2719 35.0516 -12.1707 37.7743 -126.5881 19.9495 -15.7761 137.3096 -0.0000 -0.0000 -45.7703 -10.1682 -5.2548 -2.2681 0.0000 0.0000 -29.0229 26.1304 36.0292 4.4203 0.0000 -0.0000 7.6468 23.3060 -38.7642 20.5313 0.0000 0.0000 8.3804 13.8063 25.8242 -0.6161 -2.1037 -11.7433 -27.0367 -35.7281 65.2401 36.8752 0.0000 27.0001 28.9651 0.5437 -89.0179 32.8623 0.0000 -24.3270 -33.7605 1.9357 60.5516 -72.2711 -38.8143 -20.4606 -12.6348 0.0000 21.3346 -0.0680 0.2033 18.5020 33.1476 -0.0000 26.2537 -26.7062 30.5647 53.6937
 -13.7394 14.7029 -9.2676 35.0839 -12.1492 37.7950 -126.6299 19.9748 -15.7567 137.3275 -0.0000 -0.0000 -45.7857 -10.1818 -5.2682 -2.2579 -0.0000 0.0000 -28.9947 26.0452 35.9939 4.4595 0.0000 0.0000 7.6388 23.4012 -38.7469 20.3235 0.0000 0.0000 8.3875 13.8087 25.8684 -0.5252 -2.1240 -11.8062 -27.0009 -35.9072 65.3713 37.1938 0.0000 27.1808 28.9779 0.6688 -88.7925 32.8623 0.0000 -24.3270 -33.7566 1.9065 60.5420 -72.1885 -38.7680 -20.4218 -12.6773 0.0000 21.3468 -0.0391 0.1173 18.4400 33.1476 -0.0000 26.2537 -26.5807 30.5729 53.6515
 -13.7415 14.6995 -9.2637 35.1204 -12.1340 37.8084 -126.6635 19.9839 -15.7253 137.3459 0.0000 -0.0000 -45.8104 -10.2055 -5.2326 -2.2032 -0.0000 0.0000 -28.9733 25.9591 35.9755 4.5038 0.0000 -0.0000 7.6236 23.4843 -38.7775 20.2988 0.0000 -0.0000 8.3999 13.8024 25.9116 -0.4668 -2.1046 -11.8469 -26.9347 -36.0639 65.4786 37.5055 0.0000 27.2816 28.9746 0.7669 -88.6154 32.8623 0.0000 -24.3270 -33.7422 1.8931 60.5512 -72.1598 -38.7191 -20.4076 -12.7341 0.0000 21.2957 -0.1496 0.4469 18.5102 33.1476 -0.0000 26.2537 -26.5476 30.6244 53.6820
 -13.7434 14.6956 -9.2620 35.1568 -12.1134 37.8153 -126.7043 19.9816 -15.6931 137.3606 0.0000 0.0000 -45.8362 -10.2564 -5.2180 -2.1986 -0.0000 0.0000 -28.9464 25.8269 35.9553 4.5804 0.0000 0.0000 7.6032 23.5990 -38.8648 20.2509 -0.0000 -0.0000 8.4117 13.8140 25.9504 -0.3854 -2.1533 -11.8658 -26.9043 -36.1317 65.5910 37.8119 0.0000 27.3115 28.9645 0.8822 -88.4067 32.8623 0.0000 -24.3270 -33.7324 1.8592 60.5665 -72.1256 -38.6626 -20.3655 -12.7587 0.0000 21.2406 -0.1474 0.4393 18.5503 33.1476 -0.0000 26.2537 -26.5359 30.6379 53.7081
